<svg width="236" height="184" viewBox="0 0 236 184" fill="none" xmlns="http://www.w3.org/2000/svg">
<path d="M61.8787 3.93015C72.6911 3.29574 83.682 5.5335 93.965 8.69381C88.4244 14.951 84.8462 20.5197 82.3067 28.4998C79.2227 27.6138 76.072 26.8357 72.8676 26.5639C62.4723 25.6832 48.1058 25.8602 39.6747 33.04C29.8977 41.3665 29.2433 52.2332 28.2667 64.0512L84.4063 64.4079C86.0431 71.6615 88.5728 77.3902 92.7492 83.5429C81.8066 84.7673 70.0163 83.8441 58.9868 83.5932L28.6093 83.7278C29.0864 87.4467 29.497 91.4316 30.7599 94.9741C34.4054 105.201 41.6926 109.931 51.0689 114.334C62.5154 117.823 74.0377 117.716 85.8928 117.757C88.4408 125.496 92.9171 132.037 98.057 138.262L86.0843 139.916C63.7763 141.957 37.9764 139.533 20.1233 124.653C6.90595 113.637 1.91254 97.7019 0.446346 81.1052C-1.22968 62.127 1.49288 39.2319 14.1363 24.1837C26.7097 9.21846 43.2235 5.54069 61.8787 3.93015Z" fill="white"/>
<path d="M150.108 0.46939C151.386 -0.0363117 154.232 0.18975 155.744 0.127027C166.174 -0.302884 176.754 0.460896 187.182 0.896688L235.215 2.67383L234.583 21.9957L212.177 22.0767C218.066 28.5005 222.064 36.9929 222.468 45.7434C222.995 57.1733 218.985 69.8283 211.185 78.3501C200.298 90.2425 183.641 93.6074 168.154 92.9658C163.46 92.7717 158.521 91.6865 153.854 91.9269C147.86 92.2359 139.825 94.6717 135.766 99.3014C133.836 101.503 133.312 104.131 133.546 106.983C133.752 109.501 135.341 111.289 137.657 112.195C142.921 114.254 149.126 113.711 154.683 113.632C172.45 113.379 200.003 109.66 214.501 122.048C220.61 127.268 224.731 133.942 225.344 142.091C226.062 151.625 224.298 159.275 217.891 166.662C207.608 178.516 188.282 180.788 173.6 181.79C169.506 181.625 165.502 183.149 161.293 183.107C156.827 183.062 152.742 182.146 148.334 181.731C134.049 180.386 119.842 179.724 106.129 175.065L106.182 152.245C129.114 158.247 151.548 160.999 175.238 159.023C180.302 158.6 185.827 158.334 190.636 156.538C193.399 155.507 195.426 154.055 196.647 151.314C197.659 149.043 197.67 145.795 196.742 143.488C195.587 140.621 193.267 139.031 190.375 138.151C184.965 136.504 178.781 136.84 173.192 136.838L147.502 136.851C137.484 136.844 127.462 137.134 118.108 133.008C112.746 130.644 108.394 126.204 106.327 120.717C103.895 114.262 104.568 106.641 107.431 100.454C110.51 93.8001 117.116 88.5 123.929 85.9715L116.835 81.0576C108.304 74.4639 103.939 64.802 102.634 54.3129C101.106 42.0304 103.175 27.35 110.988 17.4058C120.447 5.36568 135.735 2.22563 150.108 0.46939ZM161.047 18.8354C151.999 19.3456 142.632 20.0781 136.127 27.2912C130.737 33.2675 130.304 42.1186 130.756 49.7368C131.132 56.0691 132.552 62.4041 137.534 66.7803C145.118 73.4407 156.371 73.736 165.929 73.5955C174.182 72.903 183.874 72.394 189.641 65.5311C194.554 59.6848 195.503 50.6116 194.796 43.2267C194.156 36.5382 192.738 29.4545 187.295 24.9482C180.944 19.6919 169.616 18.1768 161.566 18.7642L161.047 18.8354Z" fill="white"/>
</svg>
